<?xml version="1.0" encoding="UTF-8"?>
<svg version="1.1" xmlns="http://www.w3.org/2000/svg" width="260" height="280">
<path d="M0 0 C85.8 0 171.6 0 260 0 C260 92.4 260 184.8 260 280 C174.2 280 88.4 280 0 280 C0 187.6 0 95.2 0 0 Z " fill="#FDFDFD" transform="translate(0,0)"/>
<path d="M0 0 C8.0287998 5.45088729 13.98061317 14.63230455 16.203125 24.05078125 C18.15619111 35.70004284 15.65684505 45.67897635 9.64453125 55.68359375 C3.35846329 64.46875703 -4.69349273 69.75442406 -15.35546875 71.68359375 C-26.30772308 72.85337678 -35.19504631 71.21559683 -44.1484375 64.62890625 C-53.21372876 56.8892632 -58.63149033 48.31182973 -59.640625 36.28515625 C-59.94612628 24.03853963 -57.44897117 15.03433926 -49.35546875 5.68359375 C-35.03180809 -8.21487475 -17.10247413 -9.55809914 0 0 Z " fill="#070707" transform="translate(151.35546875,142.31640625)"/>
<path d="M0 0 C5.7505669 3.00964249 10.37209935 8.15376487 13.32421875 13.89453125 C15.68366273 21.75550803 15.20580968 31.51027523 11.32421875 38.76953125 C7.04583597 45.16620127 0.62927389 49.83074449 -6.875 51.5625 C-14.62220597 52.57125078 -20.43087834 50.96635477 -26.875 46.5625 C-32.55853459 41.64734026 -36.13905641 35.14311441 -37.328125 27.7421875 C-37.79573816 19.60146749 -35.54020752 13.21583393 -30.875 6.5625 C-28.41167095 4.12748507 -25.88850067 2.25835665 -22.875 0.5625 C-22.27300781 0.19125 -21.67101562 -0.18 -21.05078125 -0.5625 C-14.84825133 -3.05687469 -6.1767149 -2.36073397 0 0 Z " fill="#FCFCFC" transform="translate(140.875,150.4375)"/>
<path d="M0 0 C4.13934694 3.16977018 8.08959881 6.55413228 12 10 C10.07712966 14.29378813 7.37521131 16.77153701 4 20 C0.14855147 18.66654594 -2.39277539 16.99840091 -5.4375 14.3125 C-23.41396911 -0.36162516 -45.55218349 -3.36581031 -68 -2 C-84.72627386 -0.0311483 -99.37837405 9.45316188 -112 20 C-113.10865985 19.08877273 -114.21172219 18.17073341 -115.3125 17.25 C-116.23482422 16.48429687 -116.23482422 16.48429687 -117.17578125 15.703125 C-119.05932329 13.94461466 -120.51573656 12.10080364 -122 10 C-107.99587061 -3.6060792 -90.20152832 -12.59918436 -71 -16 C-69.61941406 -16.27263672 -69.61941406 -16.27263672 -68.2109375 -16.55078125 C-44.38387606 -19.88425092 -19.7977784 -13.54031325 0 0 Z " fill="#060606" transform="translate(183,62)"/>
<path d="M0 0 C24.75 0 49.5 0 75 0 C75 3.63 75 7.26 75 11 C64.11 11 53.22 11 42 11 C42 39.05 42 67.1 42 96 C38.37 96 34.74 96 31 96 C30.67 68.28 30.34 40.56 30 12 C15.15 11.505 15.15 11.505 0 11 C0 7.37 0 3.74 0 0 Z " fill="#0B0B0B" transform="translate(173,118)"/>
<path d="M0 0 C3.23693934 2.4664389 6.18666741 5.0616304 9 8 C8.59007812 8.47050781 8.18015625 8.94101563 7.7578125 9.42578125 C7.21898437 10.04839844 6.68015625 10.67101562 6.125 11.3125 C5.59132813 11.92738281 5.05765625 12.54226562 4.5078125 13.17578125 C2.8359553 15.13498212 2.8359553 15.13498212 1 18 C-2.13461408 16.55708241 -4.6955918 14.77282985 -7.4375 12.6875 C-19.59366207 4.06112721 -33.37383411 1.74462542 -48 3 C-57.95592954 4.83835851 -69.07266121 9.35203201 -76 17 C-80.29238623 15.34908222 -82.8793915 12.26245434 -86 9 C-82.70994616 1.33434155 -74.69767043 -2.39832463 -67.5 -5.8125 C-66.89583252 -6.10229736 -66.29166504 -6.39209473 -65.66918945 -6.69067383 C-44.55456909 -16.27795966 -19.14784937 -11.84750496 0 0 Z " fill="#040404" transform="translate(167,84)"/>
<path d="M0 0 C3.96 0 7.92 0 12 0 C12 32.01 12 64.02 12 97 C8.04 97 4.08 97 0 97 C0 64.99 0 32.98 0 0 Z " fill="#080808" transform="translate(53,118)"/>
<path d="M0 0 C1.8125 1.5 1.8125 1.5 3.8125 4.5 C0.8425 7.47 -2.1275 10.44 -5.1875 13.5 C-6.71375 12.51 -8.24 11.52 -9.8125 10.5 C-16.56652205 6.82232606 -22.635135 6.39122921 -30.1875 7.5 C-33.13887775 8.56742255 -35.4675724 9.88819105 -38.1875 11.5 C-42.1875 11.5 -42.1875 11.5 -44.109375 9.96875 C-44.71265625 9.3190625 -45.3159375 8.669375 -45.9375 8 C-46.55109375 7.3503125 -47.1646875 6.700625 -47.796875 6.03125 C-48.25578125 5.5259375 -48.7146875 5.020625 -49.1875 4.5 C-47.02413611 -0.99161602 -42.2382833 -2.9596652 -37.1875 -5.5 C-24.56043061 -10.68786572 -10.83561123 -7.43013341 0 0 Z " fill="#050505" transform="translate(151.1875,106.5)"/>
<path d="M0 0 C0.33 0.99 0.66 1.98 1 3 C2.98 3 4.96 3 7 3 C7 4.65 7 6.3 7 8 C7.66 8 8.32 8 9 8 C9 6.35 9 4.7 9 3 C9.99 3 10.98 3 12 3 C12.33 2.34 12.66 1.68 13 1 C13 1.66 13 2.32 13 3 C13.99 3 14.98 3 16 3 C16.33 2.34 16.66 1.68 17 1 C17 1.66 17 2.32 17 3 C17.66 3.33 18.32 3.66 19 4 C18.34 4 17.68 4 17 4 C17 5.32 17 6.64 17 8 C17.66 8.33 18.32 8.66 19 9 C18.01 9 17.02 9 16 9 C16 7.35 16 5.7 16 4 C15.01 4 14.02 4 13 4 C13 5.32 13 6.64 13 8 C13.66 8.33 14.32 8.66 15 9 C11.04 9 7.08 9 3 9 C3 7.35 3 5.7 3 4 C2.34 4 1.68 4 1 4 C1 5.65 1 7.3 1 9 C0.67 9 0.34 9 0 9 C0 6.03 0 3.06 0 0 Z " fill="#747474" transform="translate(60,266)"/>
<path d="M0 0 C0.66 0.33 1.32 0.66 2 1 C2 1.66 2 2.32 2 3 C2.4125 2.484375 2.825 1.96875 3.25 1.4375 C3.8275 0.963125 4.405 0.48875 5 0 C7.1875 0.3125 7.1875 0.3125 9 1 C9 2.98 9 4.96 9 7 C5.59437148 7.77842938 2.49234244 8.09978121 -1 8 C-1.625 5.6875 -1.625 5.6875 -2 3 C-1.34 2.01 -0.68 1.02 0 0 Z " fill="#A5A5A5" transform="translate(186,267)"/>
<path d="M0 0 C2.01822917 0.06510417 4.03645833 0.13020833 6.0546875 0.1953125 C6.3846875 1.8453125 6.7146875 3.4953125 7.0546875 5.1953125 C3.64905898 5.97374188 0.54702994 6.29509371 -2.9453125 6.1953125 C-3.5703125 4.3203125 -3.5703125 4.3203125 -3.9453125 2.1953125 C-1.9453125 0.1953125 -1.9453125 0.1953125 0 0 Z " fill="#909090" transform="translate(121.9453125,268.8046875)"/>
<path d="M0 0 C3.125 0.375 3.125 0.375 6 1 C6 2.32 6 3.64 6 5 C6.66 5.33 7.32 5.66 8 6 C7.443125 5.814375 6.88625 5.62875 6.3125 5.4375 C3.600867 4.92448835 1.65628961 5.3359276 -1 6 C-1.625 4.125 -1.625 4.125 -2 2 C-1.34 1.34 -0.68 0.68 0 0 Z " fill="#878787" transform="translate(100,269)"/>
<path d="M0 0 C2.97 0 5.94 0 9 0 C8.01 0.495 8.01 0.495 7 1 C7 2.65 7 4.3 7 6 C6.34 6 5.68 6 5 6 C5 5.01 5 4.02 5 3 C3.68 3 2.36 3 1 3 C1 3.66 1 4.32 1 5 C1.99 5.33 2.98 5.66 4 6 C2.68 6 1.36 6 0 6 C-1.125 2.25 -1.125 2.25 0 0 Z " fill="#767676" transform="translate(80,269)"/>
<path d="M0 0 C0.66 0.33 1.32 0.66 2 1 C2 1.66 2 2.32 2 3 C2.31478446 4.33783393 2.64587656 5.67203709 3 7 C1.68 7.33 0.36 7.66 -1 8 C-1.625 5.6875 -1.625 5.6875 -2 3 C-1.34 2.01 -0.68 1.02 0 0 Z " fill="#7E7E7E" transform="translate(198,267)"/>
<path d="M0 0 C0.66 0.33 1.32 0.66 2 1 C2 1.66 2 2.32 2 3 C2.31478446 4.33783393 2.64587656 5.67203709 3 7 C1.68 7.33 0.36 7.66 -1 8 C-1.625 5.6875 -1.625 5.6875 -2 3 C-1.34 2.01 -0.68 1.02 0 0 Z " fill="#7E7E7E" transform="translate(186,267)"/>
<path d="M0 0 C0.66 0.33 1.32 0.66 2 1 C2 1.66 2 2.32 2 3 C2.31478446 4.33783393 2.64587656 5.67203709 3 7 C1.68 7.33 0.36 7.66 -1 8 C-1.625 5.6875 -1.625 5.6875 -2 3 C-1.34 2.01 -0.68 1.02 0 0 Z " fill="#7E7D7E" transform="translate(180,267)"/>
<path d="M0 0 C2.0625 0.4375 2.0625 0.4375 4 1 C3.6875 3.375 3.6875 3.375 3 6 C2.01 6.66 1.02 7.32 0 8 C-0.38063221 5.6739143 -0.71269945 3.33944736 -1 1 C-0.67 0.67 -0.34 0.34 0 0 Z " fill="#828282" transform="translate(203,267)"/>
<path d="M0 0 C0.33 0.66 0.66 1.32 1 2 C1.99 2 2.98 2 4 2 C4.33 1.34 4.66 0.68 5 0 C5 0.66 5 1.32 5 2 C5.66 2.33 6.32 2.66 7 3 C6.34 3 5.68 3 5 3 C5 4.32 5 5.64 5 7 C5.66 7.33 6.32 7.66 7 8 C6.01 8 5.02 8 4 8 C4 6.35 4 4.7 4 3 C3.01 3 2.02 3 1 3 C1 4.32 1 5.64 1 7 C1.66 7.33 2.32 7.66 3 8 C2.01 8 1.02 8 0 8 C0 5.36 0 2.72 0 0 Z " fill="#4C4C4C" transform="translate(72,267)"/>
<path d="M0 0 C2 0.25 2 0.25 4 1 C4.33 1.99 4.66 2.98 5 4 C3.35 4.33 1.7 4.66 0 5 C-0.5625 3.0625 -0.5625 3.0625 -1 1 C-0.67 0.67 -0.34 0.34 0 0 Z " fill="#B0B0B0" transform="translate(119,270)"/>
<path d="M0 0 C1.32 0 2.64 0 4 0 C4 1.65 4 3.3 4 5 C2.68 4.67 1.36 4.34 0 4 C0 2.68 0 1.36 0 0 Z " fill="#DCDCDC" transform="translate(106,270)"/>
<path d="M0 0 C0.99 0.33 1.98 0.66 3 1 C3 2.66666667 3 4.33333333 3 6 C1.68 6 0.36 6 -1 6 C-1 2 -1 2 0 0 Z " fill="#7F7F7F" transform="translate(90,269)"/>
</svg>
