<?xml version="1.0" encoding="UTF-8"?>
<svg version="1.1" xmlns="http://www.w3.org/2000/svg" width="800" height="800">
<path d="M0 0 C207.24 0 414.48 0 628 0 C628 20.46 628 40.92 628 62 C619.75 66.62 611.5 71.24 603 76 C594.10874034 81.17277732 594.10874034 81.17277732 585.23046875 86.3671875 C578.51538943 90.29477422 571.75947371 94.149607 565 98 C556.30581837 102.95349446 547.63502325 107.9437863 539 113 C530.4048271 118.0318979 521.77687778 123.00389124 513.125 127.9375 C500.79974804 134.96603507 488.50277933 142.04240434 476.21777344 149.14111328 C470.81329355 152.26324605 465.40652588 155.38141204 460 158.5 C457.8333225 159.74998122 455.66665583 160.99998121 453.5 162.25 C423.16666667 179.75 392.83333333 197.25 362.5 214.75 C361.42572754 215.36987793 360.35145508 215.98975586 359.24462891 216.62841797 C357.09623488 217.86766466 354.94747675 219.10628036 352.79833984 220.34423828 C347.71226083 223.27497632 342.63019771 226.21211416 337.56085205 229.17169189 C335.1618043 230.57178169 332.7606759 231.96828095 330.359375 233.36450195 C328.66201774 234.35343237 326.96769098 235.34755838 325.2734375 236.34179688 C324.24734375 236.93798828 323.22125 237.53417969 322.1640625 238.1484375 C321.26123535 238.67614746 320.3584082 239.20385742 319.42822266 239.74755859 C317.19691672 240.89843326 315.48701328 241.70874838 313 242 C310.28065204 240.75312408 307.81726523 239.44941548 305.25 237.9375 C304.07123291 237.26291748 304.07123291 237.26291748 302.86865234 236.57470703 C300.23761484 235.06345542 297.61828991 233.53322011 295 232 C293.15379919 230.92551771 291.30744169 229.85130459 289.4609375 228.77734375 C286.5022935 227.05397626 283.54512695 225.32820601 280.59082031 223.59741211 C272.75818283 219.00995251 264.88716021 214.49269988 257 210 C248.30581162 205.0465174 239.6350231 200.05621361 231 195 C222.4048271 189.9681021 213.77687778 184.99610876 205.125 180.0625 C192.79974804 173.03396493 180.50277933 165.95759566 168.21777344 158.85888672 C162.81329355 155.73675395 157.40652588 152.61858796 152 149.5 C149.8333225 148.25001878 147.66665583 147.00001879 145.5 145.75 C144.4275 145.13125 143.355 144.5125 142.25 143.875 C54.5 93.25 54.5 93.25 51.24584961 91.37255859 C49.09307184 90.13060256 46.94024037 88.8887396 44.78735352 87.64697266 C39.75383085 84.74353087 34.72081952 81.839215 29.68978882 78.93145752 C27.91637392 77.90654597 26.14278354 76.88193877 24.36914062 75.85742188 C22.15004227 74.57547262 19.93126984 73.29295893 17.71289062 72.00976562 C16.19791992 71.13481445 16.19791992 71.13481445 14.65234375 70.2421875 C13.33737915 69.48204346 13.33737915 69.48204346 11.99584961 68.70654297 C8.01527215 66.43906384 4.00460011 64.22477784 0 62 C0 41.54 0 21.08 0 0 Z " fill="#4E5957" transform="translate(86,523)"/>
<path d="M0 0 C3.06121744 1.18905061 5.73867231 2.53869086 8.56933594 4.19604492 C10.09880859 5.08549805 10.09880859 5.08549805 11.65917969 5.99291992 C12.7484375 6.63358398 13.83769531 7.27424805 14.95996094 7.93432617 C16.11717066 8.60939256 17.27472951 9.28386079 18.43261719 9.95776367 C20.83566676 11.35698422 23.23720013 12.75875553 25.63769531 14.16235352 C31.14782905 17.38131982 36.6800371 20.56202462 42.20996094 23.74682617 C44.37673072 24.99664741 46.54339709 26.24664798 48.70996094 27.49682617 C50.31871094 28.42495117 50.31871094 28.42495117 51.95996094 29.37182617 C165.70996094 94.99682617 165.70996094 94.99682617 168.95947266 96.87158203 C171.12772358 98.12247097 173.2960179 99.37328469 175.46435547 100.62402344 C180.85714009 103.73480952 186.24918187 106.84686855 191.63964844 109.96166992 C203.44625577 116.78185255 215.27023094 123.57005877 227.11468506 130.32418823 C235.17259347 134.92076863 243.20411735 139.56010392 251.20996094 144.24682617 C262.05649486 150.59599461 272.95940268 156.84298738 283.87792969 163.06713867 C293.32606881 168.45313167 302.76739249 173.85107277 312.20996094 179.24682617 C312.20996094 199.70682617 312.20996094 220.16682617 312.20996094 241.24682617 C104.96996094 241.24682617 -102.27003906 241.24682617 -315.79003906 241.24682617 C-315.79003906 220.78682617 -315.79003906 200.32682617 -315.79003906 179.24682617 C-307.54003906 174.62682617 -299.29003906 170.00682617 -290.79003906 165.24682617 C-281.8987794 160.07404885 -281.8987794 160.07404885 -273.02050781 154.87963867 C-266.30542849 150.95205195 -259.54951277 147.09721917 -252.79003906 143.24682617 C-244.09585743 138.29333171 -235.42506231 133.30303987 -226.79003906 128.24682617 C-218.19486616 123.21492827 -209.56691684 118.24293493 -200.91503906 113.30932617 C-188.58978711 106.2807911 -176.29281839 99.20442183 -164.0078125 92.10571289 C-158.60333261 88.98358012 -153.19656494 85.86541413 -147.79003906 82.74682617 C-145.62336156 81.49684496 -143.45669489 80.24684496 -141.29003906 78.99682617 C-110.95670573 61.49682617 -80.6233724 43.99682617 -50.29003906 26.49682617 C-49.21560547 25.87694824 -48.14117187 25.25707031 -47.03417969 24.6184082 C-44.8870877 23.37972615 -42.73995292 22.14111827 -40.59277344 20.90258789 C-35.49415097 17.96149267 -30.3959861 15.01961204 -25.29931641 12.07513428 C-22.87956242 10.67724017 -20.45956644 9.27976528 -18.03955078 7.88232422 C-16.32202854 6.89030293 -14.60485855 5.89767188 -12.88769531 4.9050293 C-11.33888672 4.01074219 -11.33888672 4.01074219 -9.75878906 3.09838867 C-8.84548828 2.57067871 -7.9321875 2.04296875 -6.99121094 1.49926758 C-2.95450496 -0.79757156 -2.95450496 -0.79757156 0 0 Z " fill="#4E5957" transform="translate(401.7900390625,35.753173828125)"/>
<path d="M0 0 C207.24 0 414.48 0 628 0 C628 49.5 628 99 628 150 C420.76 150 213.52 150 0 150 C0 100.5 0 51 0 0 Z " fill="#75B84D" transform="translate(86,325)"/>
</svg>
