<?xml version="1.0" encoding="UTF-8"?>
<svg version="1.1" xmlns="http://www.w3.org/2000/svg" width="360" height="360">
<path d="M0 0 C118.8 0 237.6 0 360 0 C360 118.8 360 237.6 360 360 C241.2 360 122.4 360 0 360 C0 241.2 0 122.4 0 0 Z " fill="#FCFDFD" transform="translate(0,0)"/>
<path d="M0 0 C0.61622223 0.29984299 1.23244446 0.59968597 1.86734009 0.90861511 C3.82403924 1.86285681 5.7752762 2.82771506 7.7265625 3.79296875 C9.02830253 4.42973874 10.33038331 5.06581265 11.6328125 5.70117188 C17.89008217 8.75931813 24.12215205 11.86576352 30.3515625 14.98046875 C30.3515625 31.15046875 30.3515625 47.32046875 30.3515625 63.98046875 C23.7515625 66.95046875 17.1515625 69.92046875 10.3515625 72.98046875 C4.02880152 76.13814508 4.02880152 76.13814508 -2.265625 79.3515625 C-10.55514729 83.3431685 -10.55514729 83.3431685 -15.24780273 81.78637695 C-16.57758641 81.13820835 -17.89699727 80.46846041 -19.20703125 79.78125 C-20.26809837 79.25497261 -20.26809837 79.25497261 -21.3506012 78.71806335 C-23.60551752 77.59477817 -25.84552088 76.44485948 -28.0859375 75.29296875 C-30.32558259 74.16530008 -32.56794698 73.0431804 -34.81056213 71.9214325 C-36.20208852 71.22278576 -37.59135683 70.51961599 -38.97789001 69.81111145 C-39.93907494 69.32127022 -39.93907494 69.32127022 -40.91967773 68.8215332 C-41.74857765 68.39611992 -41.74857765 68.39611992 -42.59422302 67.96211243 C-45.56902028 66.54055156 -48.61801006 65.27922337 -51.6484375 63.98046875 C-51.6484375 47.81046875 -51.6484375 31.64046875 -51.6484375 14.98046875 C-46.3684375 12.34046875 -41.0884375 9.70046875 -35.6484375 6.98046875 C-32.48894531 5.38525391 -32.48894531 5.38525391 -29.265625 3.7578125 C-27.35212389 2.81006363 -25.43807495 1.86341989 -23.5234375 0.91796875 C-22.54890625 0.42103516 -21.574375 -0.07589844 -20.5703125 -0.58789062 C-19.62414062 -1.05130859 -18.67796875 -1.51472656 -17.703125 -1.9921875 C-16.87280762 -2.40734619 -16.04249023 -2.82250488 -15.18701172 -3.25024414 C-9.60002839 -4.94331824 -4.99930772 -2.45342324 0 0 Z " fill="#419BFB" transform="translate(190.6484375,148.01953125)"/>
<path d="M0 0 C5.28 0 10.56 0 16 0 C16 2.64 16 5.28 16 8 C17.11375 8.1546875 17.11375 8.1546875 18.25 8.3125 C21.17014018 9.04253504 22.73187554 10.06789398 25 12 C25.598125 11.690625 26.19625 11.38125 26.8125 11.0625 C29 10 29 10 32 9 C33.17460192 10.93269959 34.33944472 12.87133313 35.5 14.8125 C36.47453125 16.43091797 36.47453125 16.43091797 37.46875 18.08203125 C39 21 39 21 39 24 C38.03320312 24.29003906 38.03320312 24.29003906 37.046875 24.5859375 C34.65648799 25.88708247 34.65648799 25.88708247 34.390625 29.0390625 C34.34421875 30.22242188 34.2978125 31.40578125 34.25 32.625 C34.16492188 34.40777344 34.16492188 34.40777344 34.078125 36.2265625 C34.03945312 37.59941406 34.03945312 37.59941406 34 39 C36.97 39.495 36.97 39.495 40 40 C38.62712658 43.69876091 36.93644547 46.9514476 34.875 50.3125 C34.33617187 51.19550781 33.79734375 52.07851562 33.2421875 52.98828125 C32.83226562 53.65214844 32.42234375 54.31601563 32 55 C31.21496094 54.66613281 30.42992187 54.33226562 29.62109375 53.98828125 C26.6570001 52.87067217 25.88359489 52.86403838 23 54 C21.948125 54.37125 20.89625 54.7425 19.8125 55.125 C18.4203125 56.053125 18.4203125 56.053125 17 57 C16.67 59.31 16.34 61.62 16 64 C10.72 64 5.44 64 0 64 C0 61.69 0 59.38 0 57 C-0.94875 56.71125 -1.8975 56.4225 -2.875 56.125 C-6 55 -6 55 -8 53 C-10.42938689 53.35232207 -10.42938689 53.35232207 -13 54 C-14.32 54 -15.64 54 -17 54 C-22.37129841 44.58997722 -22.37129841 44.58997722 -24 40 C-21.03 39.505 -21.03 39.505 -18 39 C-18 34.38 -18 29.76 -18 25 C-19.65 24.67 -21.3 24.34 -23 24 C-22.42176904 19.93774452 -21.10882263 17.15237654 -18.9375 13.6875 C-18.38964844 12.80449219 -17.84179688 11.92148438 -17.27734375 11.01171875 C-16.85582031 10.34785156 -16.43429688 9.68398437 -16 9 C-15.4225 9.33 -14.845 9.66 -14.25 10 C-11.80116138 11.27075898 -11.80116138 11.27075898 -8 11 C-6.32260138 10.01810813 -4.65532623 9.01866229 -3 8 C-2.01 8 -1.02 8 0 8 C0 5.36 0 2.72 0 0 Z " fill="#F7FBFB" transform="translate(172,155)"/>
<path d="M0 0 C3.95271715 0.00569673 7.90536696 0.00230589 11.85808182 -0.003438 C85.88728068 -0.09483451 85.88728068 -0.09483451 102.74609375 7.13037109 C102.74609375 7.46037109 102.74609375 7.79037109 102.74609375 8.13037109 C102.16118164 8.12513428 101.57626953 8.11989746 100.97363281 8.11450195 C98.31446412 8.09366951 95.65531264 8.08069102 92.99609375 8.06787109 C92.07570313 8.05949219 91.1553125 8.05111328 90.20703125 8.04248047 C88.87285156 8.03764648 88.87285156 8.03764648 87.51171875 8.03271484 C86.69477539 8.02747803 85.87783203 8.02224121 85.03613281 8.0168457 C82.80327687 8.12753632 80.90300312 8.57918623 78.74609375 9.13037109 C76.38671875 8.79052734 76.38671875 8.79052734 73.99609375 8.19287109 C72.79726563 7.90089844 72.79726563 7.90089844 71.57421875 7.60302734 C70.9709375 7.44705078 70.36765625 7.29107422 69.74609375 7.13037109 C70.07609375 8.12037109 70.40609375 9.11037109 70.74609375 10.13037109 C69.61936249 10.12815048 68.49263123 10.12592987 67.33175659 10.12364197 C56.70857035 10.1033621 46.08538803 10.08837558 35.46218681 10.07855892 C30.00082466 10.07334242 24.53947815 10.06626712 19.078125 10.05493164 C13.80672171 10.044059 8.53533346 10.03808496 3.26391983 10.03549385 C1.25371184 10.0336475 -0.75649534 10.03004207 -2.76669693 10.02464104 C-5.58422875 10.01737257 -8.40169858 10.01638261 -11.21923828 10.0168457 C-12.46325661 10.01145279 -12.46325661 10.01145279 -13.73240662 10.00595093 C-18.03255231 10.01358884 -22.00820926 10.36531835 -26.25390625 11.13037109 C-27.92692122 10.83052147 -29.59368029 10.49442968 -31.25390625 10.13037109 C-33.74890396 10.04956215 -36.24590131 10.02276948 -38.7421875 10.03271484 C-39.79698555 10.03483727 -39.79698555 10.03483727 -40.87309265 10.03700256 C-43.10424169 10.04257001 -45.33528789 10.05511635 -47.56640625 10.06787109 C-49.085285 10.07289031 -50.60416534 10.07745248 -52.12304688 10.08154297 C-55.83336637 10.09252873 -59.54362626 10.10977075 -63.25390625 10.13037109 C-63.25390625 9.47037109 -63.25390625 8.81037109 -63.25390625 8.13037109 C-64.24390625 8.79037109 -65.23390625 9.45037109 -66.25390625 10.13037109 C-68.296875 10.32568359 -68.296875 10.32568359 -70.44140625 10.25537109 C-72.32859375 10.19349609 -72.32859375 10.19349609 -74.25390625 10.13037109 C-74.25390625 9.47037109 -74.25390625 8.81037109 -74.25390625 8.13037109 C-75.24390625 8.46037109 -76.23390625 8.79037109 -77.25390625 9.13037109 C-77.25390625 8.47037109 -77.25390625 7.81037109 -77.25390625 7.13037109 C-80.55390625 7.79037109 -83.85390625 8.45037109 -87.25390625 9.13037109 C-87.25390625 6.13037109 -87.25390625 6.13037109 -86.25390625 5.13037109 C-83.92057292 4.79703776 -81.58723958 4.46370443 -79.25390625 4.13037109 C-78.92390625 3.80037109 -78.59390625 3.47037109 -78.25390625 3.13037109 C-74.92185683 2.62215966 -71.54921583 2.4129481 -68.19140625 2.13037109 C-67.30001953 2.04787109 -66.40863281 1.96537109 -65.49023438 1.88037109 C-43.70068963 -0.00031787 -21.85133403 -0.03174408 0 0 Z " fill="#F2F3F0" transform="translate(175.25390625,290.86962890625)"/>
<path d="M0 0 C1.34160529 0.72793094 2.67652016 1.46821873 4.0078125 2.21484375 C7.5346875 4.16390625 7.5346875 4.16390625 11.1328125 6.15234375 C11.1328125 13.74234375 11.1328125 21.33234375 11.1328125 29.15234375 C8.4721875 30.49296875 5.8115625 31.83359375 3.0703125 33.21484375 C2.246521 33.641604 1.42272949 34.06836426 0.57397461 34.50805664 C-4.31978168 36.88900884 -7.44075313 37.6956416 -12.8671875 36.15234375 C-15.43224056 35.10964749 -17.8638174 33.89422407 -20.3046875 32.58984375 C-20.94083984 32.26048828 -21.57699219 31.93113281 -22.23242188 31.59179688 C-23.78213326 30.78781127 -25.32537072 29.97136709 -26.8671875 29.15234375 C-26.8671875 25.85234375 -26.8671875 22.55234375 -26.8671875 19.15234375 C-32.1471875 19.15234375 -37.4271875 19.15234375 -42.8671875 19.15234375 C-42.8671875 17.83234375 -42.8671875 16.51234375 -42.8671875 15.15234375 C-37.5871875 15.15234375 -32.3071875 15.15234375 -26.8671875 15.15234375 C-26.8671875 11.85234375 -26.8671875 8.55234375 -26.8671875 5.15234375 C-24.16737185 3.77838412 -21.45949704 2.42838685 -18.7421875 1.08984375 C-17.98164063 0.69990234 -17.22109375 0.30996094 -16.4375 -0.09179688 C-10.06299688 -3.19661952 -6.3889067 -3.19289394 0 0 Z " fill="#778989" transform="translate(267.8671875,169.84765625)"/>
<path d="M0 0 C2.70092317 1.22965126 5.28763496 2.61086787 7.875 4.0625 C8.90753906 4.62807617 8.90753906 4.62807617 9.9609375 5.20507812 C11.6449213 6.12893035 13.32307467 7.06339667 15 8 C15 10.97 15 13.94 15 17 C20.28 17 25.56 17 31 17 C31 18.32 31 19.64 31 21 C25.72 21 20.44 21 15 21 C15 24.3 15 27.6 15 31 C12.27620319 32.34538144 9.54686492 33.67641535 6.8125 35 C5.65911133 35.57234375 5.65911133 35.57234375 4.48242188 36.15625 C-3.08368619 39.79317748 -3.08368619 39.79317748 -7 39 C-9.86494233 37.83212542 -12.57903564 36.44550436 -15.3125 35 C-17.849375 33.68 -20.38625 32.36 -23 31 C-23 23.41 -23 15.82 -23 8 C-20.31875 6.494375 -17.6375 4.98875 -14.875 3.4375 C-14.04210449 2.95853271 -13.20920898 2.47956543 -12.35107422 1.98608398 C-7.85573984 -0.46323505 -5.07194481 -1.78057637 0 0 Z " fill="#788A89" transform="translate(104,168)"/>
<path d="M0 0 C2.330625 1.134375 4.66125 2.26875 7.0625 3.4375 C7.0625 11.0275 7.0625 18.6175 7.0625 26.4375 C4.62875 27.7575 2.195 29.0775 -0.3125 30.4375 C-1.07739746 30.85515625 -1.84229492 31.2728125 -2.63037109 31.703125 C-7.71527778 34.4375 -7.71527778 34.4375 -9.9375 34.4375 C-9.9375 37.4075 -9.9375 40.3775 -9.9375 43.4375 C-11.2575 43.4375 -12.5775 43.4375 -13.9375 43.4375 C-13.9375 40.4675 -13.9375 37.4975 -13.9375 34.4375 C-15.0821875 34.0971875 -15.0821875 34.0971875 -16.25 33.75 C-21.29994953 31.95256034 -26.07397457 29.69132886 -30.9375 27.4375 C-30.9375 19.5175 -30.9375 11.5975 -30.9375 3.4375 C-27.1940625 1.4265625 -27.1940625 1.4265625 -23.375 -0.625 C-22.60341553 -1.05176025 -21.83183105 -1.47852051 -21.03686523 -1.91821289 C-13.19383603 -5.9791569 -7.4820217 -3.70623608 0 0 Z " fill="#788989" transform="translate(191.9375,96.5625)"/>
<path d="M0 0 C1.32 0 2.64 0 4 0 C3.99871094 1.2271875 3.99742187 2.454375 3.99609375 3.71875 C4.33035608 6.39284863 4.54772058 7.5969815 6.58251953 9.41015625 C8.70811625 10.59270291 10.81641467 11.56257969 13.0625 12.5 C16.9915625 14.2325 16.9915625 14.2325 21 16 C21 23.59 21 31.18 21 39 C18.15375 40.52625 15.3075 42.0525 12.375 43.625 C11.48989746 44.11307129 10.60479492 44.60114258 9.69287109 45.10400391 C3.83724268 48.13395883 3.83724268 48.13395883 -0.125 47.5 C-1.07375 47.005 -2.0225 46.51 -3 46 C-4.21607032 45.42431962 -5.43222044 44.84880781 -6.6484375 44.2734375 C-7.89309311 43.64549335 -9.1348393 43.01177539 -10.375 42.375 C-12.56125 41.26125 -14.7475 40.1475 -17 39 C-17 31.41 -17 23.82 -17 16 C-9.0625 12.5 -9.0625 12.5 -6.55883789 11.45507812 C-4.44922588 10.46133085 -2.74576338 9.55562007 -1 8 C0.00116121 5.15452367 0.00322791 3.07297314 0 0 Z " fill="#778888" transform="translate(178,235)"/>
<path d="M0 0 C0.33 0 0.66 0 1 0 C1.03738281 0.72445312 1.07476562 1.44890625 1.11328125 2.1953125 C1.55517619 8.69376756 2.22051122 13.64145105 6.5 18.8125 C9.61287262 21.27685749 13.0871451 21.34104447 16.9375 21.27734375 C20.42504073 20.8083752 22.4041149 19.29403799 25 17 C28.42766559 12.03579466 28.66417477 6.85957131 29 1 C29.87398437 1.72123047 29.87398437 1.72123047 30.765625 2.45703125 C33.74849843 4.51688265 36.43924385 4.6576196 40 5 C40 8.3 40 11.6 40 15 C42.31 15.33 44.62 15.66 47 16 C45.62712658 19.69876091 43.93644547 22.9514476 41.875 26.3125 C41.33617187 27.19550781 40.79734375 28.07851562 40.2421875 28.98828125 C39.83226562 29.65214844 39.42234375 30.31601563 39 31 C38.21496094 30.66613281 37.42992187 30.33226562 36.62109375 29.98828125 C33.6570001 28.87067217 32.88359489 28.86403838 30 30 C28.948125 30.37125 27.89625 30.7425 26.8125 31.125 C25.4203125 32.053125 25.4203125 32.053125 24 33 C23.67 35.31 23.34 37.62 23 40 C17.72 40 12.44 40 7 40 C7 37.69 7 35.38 7 33 C6.05125 32.71125 5.1025 32.4225 4.125 32.125 C1 31 1 31 -1 29 C-3.42938689 29.35232207 -3.42938689 29.35232207 -6 30 C-7.32 30 -8.64 30 -10 30 C-15.37129841 20.58997722 -15.37129841 20.58997722 -17 16 C-15.02 15.67 -13.04 15.34 -11 15 C-11.02320313 14.37351563 -11.04640625 13.74703125 -11.0703125 13.1015625 C-11.09738281 11.87566406 -11.09738281 11.87566406 -11.125 10.625 C-11.14820313 9.81289062 -11.17140625 9.00078125 -11.1953125 8.1640625 C-11 6 -11 6 -9 4 C-8.67 3.34 -8.34 2.68 -8 2 C-7.34 2 -6.68 2 -6 2 C-5.67 2.66 -5.34 3.32 -5 4 C-2.47266765 4.65555119 -2.47266765 4.65555119 0 5 C0 3.35 0 1.7 0 0 Z " fill="#F9FCFB" transform="translate(165,179)"/>
<path d="M0 0 C3.89450661 -0.22254324 6.43264353 0.49795517 10 2 C10.99 2 11.98 2 13 2 C12.67 1.34 12.34 0.68 12 0 C35.25 0 35.25 0 42 2 C42 1.34 42 0.68 42 0 C46.29 0 50.58 0 55 0 C55 0.66 55 1.32 55 2 C55.7528125 1.96970703 56.505625 1.93941406 57.28125 1.90820312 C71.69346291 1.33976026 86.07007613 0.85842989 100.49609375 1.03710938 C101.87474609 1.04967773 101.87474609 1.04967773 103.28125 1.0625 C104.07595703 1.07410156 104.87066406 1.08570313 105.68945312 1.09765625 C108.00659817 1.06726047 108.00659817 1.06726047 110.24487305 0.50219727 C114.10699427 -0.20177999 117.88362028 -0.12275888 121.80078125 -0.09765625 C123.0553437 -0.09553383 123.0553437 -0.09553383 124.33525085 -0.09336853 C126.994371 -0.08779184 129.6534055 -0.07524365 132.3125 -0.0625 C134.12044149 -0.05748199 135.9283843 -0.05291961 137.73632812 -0.04882812 C142.15758484 -0.03783004 146.57877793 -0.0205815 151 0 C151 0.66 151 1.32 151 2 C152.7634375 1.7834375 152.7634375 1.7834375 154.5625 1.5625 C155.29210937 1.47484375 156.02171875 1.3871875 156.7734375 1.296875 C158.75438191 1.03274908 160.72287834 0.67878539 162.6875 0.3125 C166.17839749 -0.01682995 167.9214435 0.41407695 171 2 C169 5 169 5 166.00683594 5.6159668 C164.66750614 5.74377312 163.32635355 5.85313377 161.984375 5.94921875 C161.22357132 6.01187927 160.46276764 6.07453979 159.6789093 6.13909912 C157.0370432 6.34408646 154.39443911 6.51902399 151.75 6.6875 C150.34426224 6.780811 150.34426224 6.780811 148.91012573 6.87600708 C97.09315847 10.17136218 43.54782945 10.6229229 -8 4 C-8 3.34 -8 2.68 -8 2 C-5.69 2 -3.38 2 -1 2 C-0.67 1.34 -0.34 0.68 0 0 Z M150 2 C149.67 2.66 149.34 3.32 149 4 C149.66 4 150.32 4 151 4 C150.67 3.34 150.34 2.68 150 2 Z " fill="#C6CEC5" transform="translate(100,310)"/>
<path d="M0 0 C0.95777344 0.45503906 1.91554687 0.91007812 2.90234375 1.37890625 C3.97162109 1.90291016 3.97162109 1.90291016 5.0625 2.4375 C5.0625 5.0775 5.0625 7.7175 5.0625 10.4375 C5.95453125 10.39109375 6.8465625 10.3446875 7.765625 10.296875 C8.93609375 10.26078125 10.1065625 10.2246875 11.3125 10.1875 C13.05273438 10.11789063 13.05273438 10.11789063 14.828125 10.046875 C18.0625 10.4375 18.0625 10.4375 20.46875 12.15625 C22.31132292 14.79365829 22.49901561 16.01673471 22.3125 19.1875 C22.27640625 19.98671875 22.2403125 20.7859375 22.203125 21.609375 C22.15671875 22.21265625 22.1103125 22.8159375 22.0625 23.4375 C21.0725 23.7675 20.0825 24.0975 19.0625 24.4375 C18.7325 21.1375 18.4025 17.8375 18.0625 14.4375 C13.7725 14.4375 9.4825 14.4375 5.0625 14.4375 C5.0625 17.0775 5.0625 19.7175 5.0625 22.4375 C2.84140472 23.6427222 0.6127135 24.82637404 -1.625 26 C-2.56375977 26.51336914 -2.56375977 26.51336914 -3.52148438 27.03710938 C-6.2680665 28.46073047 -8.37420667 29.45810829 -11.5 29.34375 C-16.52922375 27.4739104 -21.17461153 24.89745339 -25.9375 22.4375 C-25.9375 15.8375 -25.9375 9.2375 -25.9375 2.4375 C-15.80863284 -2.67914424 -10.59881591 -5.10313359 0 0 Z " fill="#3F9AFC" transform="translate(135.9375,126.5625)"/>
<path d="M0 0 C0 6.6 0 13.2 0 20 C-2.206875 21.175625 -4.41375 22.35125 -6.6875 23.5625 C-7.37287842 23.93705322 -8.05825684 24.31160645 -8.7644043 24.69750977 C-11.45595694 26.08560364 -13.50992925 27.01792942 -16.5625 26.90625 C-19.59988021 25.77696761 -22.43298769 24.42472064 -25.3125 22.9375 C-26.91544922 22.11572266 -26.91544922 22.11572266 -28.55078125 21.27734375 C-29.35902344 20.85582031 -30.16726562 20.43429688 -31 20 C-31 17.36 -31 14.72 -31 12 C-31.89203125 12.04640625 -32.7840625 12.0928125 -33.703125 12.140625 C-34.87359375 12.17671875 -36.0440625 12.2128125 -37.25 12.25 C-38.99023438 12.31960937 -38.99023438 12.31960937 -40.765625 12.390625 C-44 12 -44 12 -46.40625 10.28125 C-48.24882292 7.64384171 -48.43651561 6.42076529 -48.25 3.25 C-48.21390625 2.45078125 -48.1778125 1.6515625 -48.140625 0.828125 C-48.09421875 0.22484375 -48.0478125 -0.3784375 -48 -1 C-47.01 -1 -46.02 -1 -45 -1 C-44.77213542 1.05078125 -44.54427083 3.1015625 -44.31640625 5.15234375 C-44.18113386 7.01140229 -44.18113386 7.01140229 -43 8 C-40.98405418 8.23427778 -38.961526 8.41336124 -36.9375 8.5625 C-35.83277344 8.64628906 -34.72804687 8.73007813 -33.58984375 8.81640625 C-32.30787109 8.90728516 -32.30787109 8.90728516 -31 9 C-31 6.03 -31 3.06 -31 0 C-28.99031875 -1.04261659 -26.96661811 -2.05823523 -24.9375 -3.0625 C-23.81214844 -3.63097656 -22.68679687 -4.19945312 -21.52734375 -4.78515625 C-13.55270259 -7.53168272 -7.12367167 -3.42991599 0 0 Z " fill="#3E99FC" transform="translate(250,225)"/>
<path d="M0 0 C0 6.6 0 13.2 0 20 C-2.206875 21.175625 -4.41375 22.35125 -6.6875 23.5625 C-7.37287842 23.93705322 -8.05825684 24.31160645 -8.7644043 24.69750977 C-11.45595694 26.08560364 -13.50992925 27.01792942 -16.5625 26.90625 C-19.59988021 25.77696761 -22.43298769 24.42472064 -25.3125 22.9375 C-26.91544922 22.11572266 -26.91544922 22.11572266 -28.55078125 21.27734375 C-29.35902344 20.85582031 -30.16726562 20.43429688 -31 20 C-31 17.36 -31 14.72 -31 12 C-35.29 12 -39.58 12 -44 12 C-44.33 14.97 -44.66 17.94 -45 21 C-45.99 21 -46.98 21 -48 21 C-48.08131463 19.56344146 -48.13933559 18.1255517 -48.1875 16.6875 C-48.22230469 15.88699219 -48.25710937 15.08648437 -48.29296875 14.26171875 C-48 12 -48 12 -46.9375 10.21875 C-43.94320503 8.33524188 -41.29897246 8.71654204 -37.8125 8.8125 C-35.90404297 8.85310547 -35.90404297 8.85310547 -33.95703125 8.89453125 C-32.49330078 8.94673828 -32.49330078 8.94673828 -31 9 C-31 6.03 -31 3.06 -31 0 C-28.99031875 -1.04261659 -26.96661811 -2.05823523 -24.9375 -3.0625 C-23.81214844 -3.63097656 -22.68679687 -4.19945313 -21.52734375 -4.78515625 C-13.55270259 -7.53168272 -7.12367167 -3.42991599 0 0 Z " fill="#3F9AFC" transform="translate(250,129)"/>
<path d="M0 0 C0.95777344 0.45503906 1.91554687 0.91007813 2.90234375 1.37890625 C3.97162109 1.90291016 3.97162109 1.90291016 5.0625 2.4375 C5.0625 5.4075 5.0625 8.3775 5.0625 11.4375 C7.04206441 11.29716889 9.02115141 11.1500877 11 11 C12.10214844 10.91878906 13.20429688 10.83757812 14.33984375 10.75390625 C16.97359903 10.73331916 16.97359903 10.73331916 18.0625 9.4375 C18.29325082 8.09002916 18.47403063 6.73372435 18.625 5.375 C18.769375 4.075625 18.91375 2.77625 19.0625 1.4375 C20.0525 1.4375 21.0425 1.4375 22.0625 1.4375 C22.17134119 2.85243551 22.24847617 4.26982943 22.3125 5.6875 C22.35890625 6.47640625 22.4053125 7.2653125 22.453125 8.078125 C22.0625 10.4375 22.0625 10.4375 20.46875 12.71875 C17.26191141 15.00934899 15.21151048 14.84346042 11.3125 14.6875 C10.14203125 14.65140625 8.9715625 14.6153125 7.765625 14.578125 C6.87359375 14.53171875 5.9815625 14.4853125 5.0625 14.4375 C5.0625 17.0775 5.0625 19.7175 5.0625 22.4375 C2.84140472 23.6427222 0.6127135 24.82637404 -1.625 26 C-2.56375977 26.51336914 -2.56375977 26.51336914 -3.52148438 27.03710938 C-6.2680665 28.46073047 -8.37420667 29.45810829 -11.5 29.34375 C-16.52922375 27.4739104 -21.17461153 24.89745339 -25.9375 22.4375 C-25.9375 15.8375 -25.9375 9.2375 -25.9375 2.4375 C-15.80863284 -2.67914424 -10.59881591 -5.10313359 0 0 Z " fill="#409AFC" transform="translate(135.9375,222.5625)"/>
<path d="M0 0 C3.95761332 2.10793514 7.04727824 4.58997179 9.5625 8.3125 C10.323271 12.98580754 10.34360366 17.63365326 7.953125 21.84375 C5.70642429 24.67292867 3.49078779 27.00263206 0 28 C-5.35968704 28.42537199 -8.66939687 28.48854141 -13 25 C-16.78602272 21.42431188 -17.76310234 18.25895614 -18.08984375 13.20703125 C-17.92003163 9.03555951 -16.44084262 6.43704093 -13.51953125 3.5234375 C-9.41351714 0.15970054 -5.30198179 -1.42861748 0 0 Z " fill="#419BFC" transform="translate(184,173)"/>
<path d="M0 0 C4.28901674 0.00010196 8.57786924 -0.0136226 12.86684704 -0.03077221 C16.2293621 -0.04200707 19.59183861 -0.04391584 22.9543705 -0.04339027 C24.5340361 -0.04455038 26.11370339 -0.04885745 27.69334984 -0.05672264 C38.59102241 -0.10597995 49.15883018 0.69026279 59.9543457 2.18530273 C60.4493457 3.67030273 60.4493457 3.67030273 60.9543457 5.18530273 C59.82761444 5.18308212 58.70088318 5.18086151 57.54000854 5.17857361 C46.9168223 5.15829374 36.29363999 5.14330722 25.67043877 5.13349056 C20.20907662 5.12827406 14.7477301 5.12119876 9.28637695 5.10986328 C4.01497367 5.09899064 -1.25641458 5.0930166 -6.52782822 5.09042549 C-8.53803621 5.08857914 -10.54824339 5.08497371 -12.55844498 5.07957268 C-15.37597679 5.07230421 -18.19344663 5.07131425 -21.01098633 5.07177734 C-21.84033188 5.06818207 -22.66967743 5.06458679 -23.52415466 5.06088257 C-27.82462689 5.06852106 -31.79944201 5.4226773 -36.0456543 6.18530273 C-37.72139931 5.90110642 -39.38976886 5.56862022 -41.0456543 5.18530273 C-42.81118228 5.10783076 -44.57923885 5.077312 -46.34643555 5.08764648 C-47.32290039 5.09086914 -48.29936523 5.0940918 -49.30541992 5.09741211 C-50.81652344 5.10998047 -50.81652344 5.10998047 -52.3581543 5.12280273 C-53.38489258 5.12731445 -54.41163086 5.13182617 -55.46948242 5.13647461 C-57.99493312 5.14822089 -60.52026335 5.16464709 -63.0456543 5.18530273 C-62.3856543 4.19530273 -61.7256543 3.20530273 -61.0456543 2.18530273 C-58.32232909 1.6937112 -55.79086698 1.37469986 -53.0456543 1.18530273 C-51.15786255 1.03194458 -51.15786255 1.03194458 -49.23193359 0.87548828 C-32.84100293 -0.11594331 -16.41393377 -0.00204365 0 0 Z " fill="#BEC7BC" transform="translate(185.045654296875,295.814697265625)"/>
<path d="M0 0 C0.85851562 0.45246094 1.71703125 0.90492188 2.6015625 1.37109375 C3.91253906 2.05365234 3.91253906 2.05365234 5.25 2.75 C6.22839844 3.27400391 6.22839844 3.27400391 7.2265625 3.80859375 C6.29659811 6.87747625 5.66241759 8.48405417 3.0546875 10.42578125 C-5.51187436 14.60522507 -5.51187436 14.60522507 -10.7734375 12.80859375 C-11.7634375 12.47859375 -12.7534375 12.14859375 -13.7734375 11.80859375 C-13.7734375 12.46859375 -13.7734375 13.12859375 -13.7734375 13.80859375 C-16.4134375 14.46859375 -19.0534375 15.12859375 -21.7734375 15.80859375 C-21.5259375 16.55109375 -21.2784375 17.29359375 -21.0234375 18.05859375 C-20.8996875 19.41984375 -20.8996875 19.41984375 -20.7734375 20.80859375 C-22.7109375 23.12109375 -22.7109375 23.12109375 -24.7734375 24.80859375 C-24.1134375 25.13859375 -23.4534375 25.46859375 -22.7734375 25.80859375 C-23.7634375 25.80859375 -24.7534375 25.80859375 -25.7734375 25.80859375 C-25.7734375 23.82859375 -25.7734375 21.84859375 -25.7734375 19.80859375 C-31.0534375 19.80859375 -36.3334375 19.80859375 -41.7734375 19.80859375 C-41.7734375 18.48859375 -41.7734375 17.16859375 -41.7734375 15.80859375 C-36.4934375 15.80859375 -31.2134375 15.80859375 -25.7734375 15.80859375 C-25.7734375 12.50859375 -25.7734375 9.20859375 -25.7734375 5.80859375 C-23.07362185 4.43463412 -20.36574704 3.08463685 -17.6484375 1.74609375 C-16.88789063 1.35615234 -16.12734375 0.96621094 -15.34375 0.56445312 C-9.46778685 -2.29754617 -6.14615851 -2.64025119 0 0 Z " fill="#7F908F" transform="translate(266.7734375,169.19140625)"/>
<path d="M0 0 C2.70737963 -0.15470741 4.61589439 -0.17079235 7.1171875 0.94140625 C11.02318928 2.37572398 14.81083326 2.68615847 18.9375 3.0625 C19.68451172 3.14048828 20.43152344 3.21847656 21.20117188 3.29882812 C24.13191213 3.58139352 27.06257519 3.79734709 30 4 C30.64083527 4.04483521 31.28167053 4.08967041 31.94192505 4.13586426 C51.15895143 5.40663957 70.44044261 5.15304516 89.6887207 5.13037109 C94.60354483 5.12463868 99.51831473 5.12798869 104.43313694 5.13394356 C108.26729228 5.13757738 112.101435 5.1363983 115.93559074 5.13381577 C117.74742578 5.13315616 119.55926203 5.13394046 121.37109566 5.13629532 C131.30271265 5.14639038 141.10741652 4.9782349 151 4 C151 3.34 151 2.68 151 2 C152.92424246 1.76368952 154.84858091 1.52812986 156.7734375 1.296875 C158.75438191 1.03274908 160.72287834 0.67878539 162.6875 0.3125 C166.17839749 -0.01682995 167.9214435 0.41407695 171 2 C169 5 169 5 166.00683594 5.6159668 C164.66750614 5.74377312 163.32635355 5.85313377 161.984375 5.94921875 C161.22357132 6.01187927 160.46276764 6.07453979 159.6789093 6.13909912 C157.0370432 6.34408646 154.39443911 6.51902399 151.75 6.6875 C150.34426224 6.780811 150.34426224 6.780811 148.91012573 6.87600708 C97.09315847 10.17136218 43.54782945 10.6229229 -8 4 C-8 3.34 -8 2.68 -8 2 C-5.69 2 -3.38 2 -1 2 C-0.67 1.34 -0.34 0.68 0 0 Z " fill="#E0E4DF" transform="translate(100,310)"/>
<path d="M0 0 C0.85851562 0.45246094 1.71703125 0.90492188 2.6015625 1.37109375 C3.91253906 2.05365234 3.91253906 2.05365234 5.25 2.75 C6.22839844 3.27400391 6.22839844 3.27400391 7.2265625 3.80859375 C6.29659811 6.87747625 5.66241759 8.48405417 3.0546875 10.42578125 C-5.50528151 14.60200856 -5.50528151 14.60200856 -10.7734375 12.80859375 C-11.55332031 12.55980469 -12.33320312 12.31101563 -13.13671875 12.0546875 C-15.36178614 11.33837498 -17.56957876 10.5872905 -19.7734375 9.80859375 C-21.45951224 13.55389093 -22.17515568 16.84640417 -22.5234375 20.93359375 C-22.62140625 21.96742188 -22.719375 23.00125 -22.8203125 24.06640625 C-23.01671914 27.02910264 -23.01671914 27.02910264 -20.7734375 29.80859375 C-22.2584375 30.30359375 -22.2584375 30.30359375 -23.7734375 30.80859375 C-24.4334375 30.47859375 -25.0934375 30.14859375 -25.7734375 29.80859375 C-25.7734375 22.21859375 -25.7734375 14.62859375 -25.7734375 6.80859375 C-23.0921875 5.30296875 -20.4109375 3.79734375 -17.6484375 2.24609375 C-16.81554199 1.76712646 -15.98264648 1.28815918 -15.12451172 0.79467773 C-9.33529572 -2.35962308 -6.1795852 -2.65461055 0 0 Z " fill="#7A8C8B" transform="translate(106.7734375,169.19140625)"/>
<path d="M0 0 C9.51383523 -0.18033827 18.71123434 0.24311676 28.18117714 1.2647953 C48.61108529 3.41489863 68.98970944 3.42248455 89.51055908 3.3225708 C93.25503041 3.30911234 96.99938321 3.31440953 100.74386787 3.31945992 C119.86555693 3.33864014 138.82554326 3.04611329 157.88745117 1.42651367 C164.26225649 0.90945583 170.60816466 0.90816831 177 1 C169.08812301 6.27458466 155.75199642 4.33871025 146.54882812 4.60546875 C145.39189453 4.64285156 144.23496094 4.68023437 143.04296875 4.71875 C142.00164795 4.74904297 140.96032715 4.77933594 139.88745117 4.81054688 C137.09272209 4.91797572 137.09272209 4.91797572 134.78601074 5.50276184 C131.35740058 6.11468906 128.00620037 6.14755585 124.53637695 6.14526367 C123.80022156 6.14862228 123.06406616 6.1519809 122.30560303 6.15544128 C119.8664785 6.16494492 117.42742318 6.16689674 114.98828125 6.16796875 C113.26083856 6.17119102 111.53339613 6.17455578 109.80595398 6.17805481 C106.16514459 6.18405116 102.5243589 6.18589511 98.88354492 6.18530273 C95.22138392 6.18522272 91.55935133 6.19195705 87.8972168 6.20581055 C69.24688736 6.27528047 50.64236299 6.19540576 32.01953125 5.08984375 C31.32317377 5.04929556 30.62681629 5.00874737 29.90935707 4.96697044 C19.78514355 4.36034349 9.88947853 3.29631854 0 1 C0 0.67 0 0.34 0 0 Z " fill="#F0F1EE" transform="translate(89,314)"/>
<path d="M0 0 C1.48285945 -0.00067581 2.9657188 -0.00164813 4.44857788 -0.00289917 C7.55687515 -0.00436954 10.6651436 -0.00224717 13.7734375 0.00244141 C17.6886355 0.00806943 21.60376452 0.00480352 25.51896 -0.00099659 C42.33538319 -0.0221861 59.10703939 0.10318184 75.8984375 1.1328125 C76.59239624 1.17297485 77.28635498 1.21313721 78.00134277 1.2545166 C82.07422703 1.49043448 86.14246115 1.76848194 90.2109375 2.0703125 C91.34337891 2.14443359 92.47582031 2.21855469 93.64257812 2.29492188 C94.71314453 2.37419922 95.78371094 2.45347656 96.88671875 2.53515625 C98.30271362 2.63558228 98.30271362 2.63558228 99.74731445 2.73803711 C100.45718506 2.86831299 101.16705566 2.99858887 101.8984375 3.1328125 C102.2284375 3.7928125 102.5584375 4.4528125 102.8984375 5.1328125 C96.19313977 6.3271101 90.49779994 5.69254927 83.796875 4.7109375 C66.90590849 2.51747214 50.04828265 2.75391568 33.04821777 2.86853027 C29.67197492 2.88762907 26.29578597 2.89164184 22.91949654 2.89537811 C-8.91270277 0.81842219 -8.91270277 0.81842219 -39.1015625 7.1328125 C-41.7739246 7.26696722 -44.42406738 7.17599791 -47.1015625 7.1328125 C-47.1015625 6.4728125 -47.1015625 5.8128125 -47.1015625 5.1328125 C-48.0915625 5.7928125 -49.0815625 6.4528125 -50.1015625 7.1328125 C-52.14453125 7.328125 -52.14453125 7.328125 -54.2890625 7.2578125 C-56.17625 7.1959375 -56.17625 7.1959375 -58.1015625 7.1328125 C-58.1015625 6.4728125 -58.1015625 5.8128125 -58.1015625 5.1328125 C-59.0915625 5.4628125 -60.0815625 5.7928125 -61.1015625 6.1328125 C-61.1015625 5.4728125 -61.1015625 4.8128125 -61.1015625 4.1328125 C-51.00354698 2.64270419 -41.01820989 1.82464587 -30.81787109 1.47485352 C-29.93180176 1.44319092 -29.04573242 1.41152832 -28.1328125 1.37890625 C-27.35486328 1.35497803 -26.57691406 1.3310498 -25.77539062 1.30639648 C-22.97627336 1.16244594 -22.97627336 1.16244594 -19.73095703 0.62573242 C-13.18929182 -0.21773388 -6.58361559 -0.01066669 0 0 Z " fill="#D0D7CF" transform="translate(159.1015625,293.8671875)"/>
<path d="M0 0 C5.52462895 0 9.66117156 0.41812491 15 2 C15 1.34 15 0.68 15 0 C19.29 0 23.58 0 28 0 C28 0.66 28 1.32 28 2 C28.7528125 1.96970703 29.505625 1.93941406 30.28125 1.90820312 C44.69346291 1.33976026 59.07007613 0.85842989 73.49609375 1.03710938 C74.87474609 1.04967773 74.87474609 1.04967773 76.28125 1.0625 C77.07595703 1.07410156 77.87066406 1.08570313 78.68945312 1.09765625 C81.03000591 1.06121033 81.03000591 1.06121033 83.39526367 0.50219727 C86.4469379 -0.08617033 89.28705815 -0.11238361 92.39453125 -0.09765625 C94.19760742 -0.09282227 94.19760742 -0.09282227 96.03710938 -0.08789062 C97.28298828 -0.07951172 98.52886719 -0.07113281 99.8125 -0.0625 C101.07771484 -0.05798828 102.34292969 -0.05347656 103.64648438 -0.04882812 C106.7643711 -0.03706251 109.88216133 -0.02062272 113 0 C112.67 0.66 112.34 1.32 112 2 C108.5338059 2.75283394 104.94345707 2.85578984 101.41015625 3.109375 C99.69736229 3.23551178 99.69736229 3.23551178 97.94996643 3.36419678 C82.52857552 4.37382401 67.08252655 4.30190319 51.63500977 4.26074219 C47.26016528 4.24919525 42.88556224 4.25603783 38.51072598 4.26788712 C35.09363495 4.27513123 31.67660092 4.2728087 28.25950813 4.26763153 C26.64532504 4.26631002 25.03113655 4.26788935 23.41695976 4.27259064 C15.38037618 4.29092432 7.79755591 4.22298501 0 2 C0 1.34 0 0.68 0 0 Z " fill="#B7C2B6" transform="translate(127,310)"/>
<path d="M0 0 C1.5865892 -0.00009064 1.5865892 -0.00009064 3.20523071 -0.00018311 C17.59382095 0.01143247 31.94461111 0.27671194 46.3125 1.0625 C47.05256287 1.10170563 47.79262573 1.14091125 48.55511475 1.18130493 C58.00174519 1.6980026 67.28228542 2.69376535 76.625 4.1875 C76.625 4.5175 76.625 4.8475 76.625 5.1875 C75.65304688 5.12691406 74.68109375 5.06632812 73.6796875 5.00390625 C69.87116572 4.77007686 66.06185168 4.5520359 62.25222778 4.33699036 C60.61267303 4.24369901 58.97322549 4.14847931 57.33395386 4.05033875 C40.53556894 3.06044331 23.74525447 3.03216828 6.92480469 3.05712891 C2.99372388 3.06289582 -0.93728965 3.05948611 -4.86836815 3.05355644 C-7.93627425 3.04993404 -11.00416448 3.05109593 -14.07207108 3.05368423 C-15.52240635 3.05434522 -16.97274311 3.05355449 -18.42307663 3.05120468 C-25.50352599 3.04222172 -32.37018971 3.1383735 -39.375 4.1875 C-40.80082924 4.25559887 -42.22884502 4.29705129 -43.65625 4.28515625 C-44.35234375 4.28193359 -45.0484375 4.27871094 -45.765625 4.27539062 C-46.46171875 4.26701172 -47.1578125 4.25863281 -47.875 4.25 C-48.60203125 4.24548828 -49.3290625 4.24097656 -50.078125 4.23632812 C-51.84378681 4.22471193 -53.6094053 4.20678441 -55.375 4.1875 C-55.375 3.8575 -55.375 3.5275 -55.375 3.1875 C-48.21045976 1.86263888 -41.12538292 0.99993513 -33.85546875 0.6328125 C-33.03940155 0.59125534 -32.22333435 0.54969818 -31.38253784 0.50688171 C-20.92541916 0.01974198 -10.46657215 -0.00924128 0 0 Z " fill="#E2E6E1" transform="translate(175.375,291.8125)"/>
<path d="M0 0 C1.06154297 0.51433594 1.06154297 0.51433594 2.14453125 1.0390625 C4.11279766 1.99734282 6.0601368 2.9857568 8 4 C4.62488799 7.67229168 0.85731429 9.82780901 -4 11 C-9.16637255 10.33957374 -13.72253345 7.89763863 -18 5 C-13.11478226 -0.38149383 -6.77859597 -3.46141071 0 0 Z " fill="#F5F7F7" transform="translate(185,97)"/>
<path d="M0 0 C0 0.66 0 1.32 0 2 C-1.86120163 3.0661252 -3.73970734 4.10207965 -5.625 5.125 C-7.19121094 5.99511719 -7.19121094 5.99511719 -8.7890625 6.8828125 C-13.50135672 8.52236986 -16.00097831 6.91593971 -20.3359375 4.9296875 C-21.00882813 4.58164063 -21.68171875 4.23359375 -22.375 3.875 C-23.06335938 3.52179688 -23.75171875 3.16859375 -24.4609375 2.8046875 C-24.96882812 2.53914062 -25.47671875 2.27359375 -26 2 C-17.77220192 -7.54424578 -9.88625185 -4.72343144 0 0 Z " fill="#F6F8F8" transform="translate(193,251)"/>
<path d="M0 0 C0.7940625 0.433125 1.588125 0.86625 2.40625 1.3125 C3.21707031 1.66570312 4.02789062 2.01890625 4.86328125 2.3828125 C6.02923828 2.90488281 6.02923828 2.90488281 7.21875 3.4375 C8.00894531 3.79070312 8.79914063 4.14390625 9.61328125 4.5078125 C10.20496094 4.77335938 10.79664063 5.03890625 11.40625 5.3125 C8.24080755 8.72294573 4.7755096 10.74190573 0.40625 12.3125 C-4.66299117 12.3125 -9.34476183 9.99980755 -13.59375 7.3125 C-13.92375 6.6525 -14.25375 5.9925 -14.59375 5.3125 C-12.71008147 4.24899337 -10.8112171 3.21236771 -8.90625 2.1875 C-7.85050781 1.60742188 -6.79476562 1.02734375 -5.70703125 0.4296875 C-2.59375 -0.6875 -2.59375 -0.6875 0 0 Z " fill="#F6F8F8" transform="translate(261.59375,170.6875)"/>
<path d="M0 0 C3.43677935 1.48617485 6.72496691 3.18772873 10 5 C6.83108732 8.41418456 3.36877275 10.41820297 -1 12 C-6.67763844 12.12080082 -11.26746421 8.85003822 -16 6 C-10.97678285 2.15174137 -6.54184731 -1.00643805 0 0 Z " fill="#F7F9F9" transform="translate(103,171)"/>
<path d="M0 0 C2.70737963 -0.15470741 4.61589439 -0.17079235 7.1171875 0.94140625 C11.02318928 2.37572398 14.81083326 2.68615847 18.9375 3.0625 C19.68451172 3.14048828 20.43152344 3.21847656 21.20117188 3.29882812 C40.01020063 5.11228827 58.99699538 5.21826726 77.875 5.5625 C80.13542172 5.60585723 82.39583844 5.64947581 84.65625 5.69335938 C90.10411305 5.79857014 95.55202772 5.90061492 101 6 C101 6.33 101 6.66 101 7 C33.44078159 7.42923787 33.44078159 7.42923787 4 5 C2.82985352 4.90444824 1.65970703 4.80889648 0.45410156 4.71044922 C-2.36429911 4.47770334 -5.18230684 4.24113638 -8 4 C-8 3.34 -8 2.68 -8 2 C-5.69 2 -3.38 2 -1 2 C-0.67 1.34 -0.34 0.68 0 0 Z " fill="#D4D9D2" transform="translate(100,310)"/>
<path d="M0 0 C3.00981745 0.00533656 6.01948408 0.00003739 9.02929688 -0.00634766 C20.81365433 -0.00997272 32.52234802 0.32265583 44.27929688 1.13037109 C43.94929688 1.79037109 43.61929688 2.45037109 43.27929688 3.13037109 C42.17175552 3.12704018 42.17175552 3.12704018 41.0418396 3.12364197 C34.06826019 3.1035677 27.09468513 3.08836062 20.12108421 3.07855892 C16.53627663 3.07335031 12.95149301 3.06628952 9.36669922 3.05493164 C5.90429068 3.04403073 2.44190513 3.03807903 -1.02051926 3.03549385 C-2.97801217 3.0327592 -4.9354959 3.02495865 -6.89297485 3.01707458 C-8.09376678 3.01699905 -9.29455872 3.01692352 -10.53173828 3.0168457 C-11.58430817 3.01462509 -12.63687805 3.01240448 -13.72134399 3.01011658 C-16.79374081 3.13329942 -19.69277941 3.61846921 -22.72070312 4.13037109 C-24.38912847 3.80595505 -26.05550794 3.4709792 -27.72070312 3.13037109 C-31.05566999 3.03787586 -34.38526194 3.07208183 -37.72070312 3.13037109 C-27.91564786 -2.6326599 -11.07893915 -0.02330521 0 0 Z " fill="#ABB6A9" transform="translate(171.720703125,297.86962890625)"/>
<path d="M0 0 C1.32 0 2.64 0 4 0 C3.979375 1.2375 3.95875 2.475 3.9375 3.75 C4.08242981 5.97555793 4.08242981 5.97555793 5 8 C7.80999463 9.9298831 10.75379899 11.00318676 14 12 C14 13.32 14 14.64 14 16 C8.32989691 14.19587629 8.32989691 14.19587629 6 12.8125 C2.9731737 11.58285182 1.1385646 12.15500184 -2 13 C-4.7346396 14.21426161 -7.36873312 15.57769358 -10 17 C-10.66 17.33 -11.32 17.66 -12 18 C-12 17.34 -12 16.68 -12 16 C-13.32 15.67 -14.64 15.34 -16 15 C-14.39318359 14.38125 -14.39318359 14.38125 -12.75390625 13.75 C-11.35606931 13.16834973 -9.95897084 12.58492251 -8.5625 12 C-7.50192383 11.59974609 -7.50192383 11.59974609 -6.41992188 11.19140625 C-4.32808355 10.29061463 -2.70922293 9.51133651 -1 8 C-0.03486065 5.17705206 -0.02214351 3.03682435 0 0 Z " fill="#829191" transform="translate(178,235)"/>
<path d="M0 0 C1.69207001 0.9563874 3.36816893 1.94410931 5 3 C2.43910967 5.98770538 -0.36183914 7.54473565 -4 9 C-8.623482 8.88144918 -12.14215974 6.34496173 -16 4 C-11.64299576 -1.38218171 -6.18071323 -2.95599329 0 0 Z " fill="#EDF7F9" transform="translate(240,127)"/>
<path d="M0 0 C3.03849806 1.39264494 6.038994 2.82399686 9 4.375 C6.43910967 7.36270538 3.63816086 8.91973565 0 10.375 C-4.623482 10.25644918 -8.14215974 7.71996173 -12 5.375 C-8.74312678 1.57531458 -5.0848484 -1.05934342 0 0 Z " fill="#EEF6FA" transform="translate(127,125.625)"/>
<path d="M0 0 C1.97730066 0.98515687 3.91569554 2.00985134 5.8359375 3.1015625 C3.10372044 5.97928224 0.55517813 7.61386625 -3.1640625 9.1015625 C-7.7875445 8.98301168 -11.30622224 6.44652423 -15.1640625 4.1015625 C-10.89766946 -0.59146984 -6.18947213 -2.56963644 0 0 Z " fill="#F0F7F9" transform="translate(130.1640625,222.8984375)"/>
<path d="M0 0 C-2.56089033 2.98770538 -5.36183914 4.54473565 -9 6 C-13.623482 5.88144918 -17.14215974 3.34496173 -21 1 C-14.86305651 -6.10593457 -7.4597855 -4.18475772 0 0 Z " fill="#F4FAF9" transform="translate(245,226)"/>
<path d="M0 0 C7.1085287 -0.05169626 14.21700719 -0.08613922 21.32568359 -0.10986328 C23.73227753 -0.11977749 26.13885991 -0.13331285 28.54541016 -0.15087891 C41.29675799 -0.24146516 53.96952462 -0.12280879 66.6875 0.8828125 C67.71560791 0.96079071 68.74371582 1.03876892 69.80297852 1.11911011 C70.73811279 1.20242584 71.67324707 1.28574158 72.63671875 1.37158203 C73.45873779 1.44410187 74.28075684 1.5166217 75.12768555 1.59133911 C75.74554932 1.7261972 76.36341309 1.8610553 77 2 C77.495 2.99 77.495 2.99 78 4 C74.70835171 4.02895225 71.41673601 4.0467823 68.125 4.0625 C67.18785156 4.07087891 66.25070313 4.07925781 65.28515625 4.08789062 C63.94130859 4.09272461 63.94130859 4.09272461 62.5703125 4.09765625 C61.32918701 4.10551147 61.32918701 4.10551147 60.06298828 4.11352539 C58 4 58 4 56 3 C53.37235202 2.77244531 50.76572492 2.60050982 48.1328125 2.47265625 C47.33529572 2.43133072 46.53777893 2.39000519 45.71609497 2.34742737 C36.44029799 1.88850006 27.1589594 1.65684137 17.875 1.4375 C16.12629583 1.39413162 14.37759785 1.35051285 12.62890625 1.30664062 C8.41933617 1.20155797 4.20969842 1.09980303 0 1 C0 0.67 0 0.34 0 0 Z " fill="#B6C0B5" transform="translate(160,297)"/>
<path d="M0 0 C0.99 0.33 1.98 0.66 3 1 C-4.79715935 7.66968252 -18.411537 5.13303662 -28.16796875 5.09765625 C-29.69924371 5.09578675 -31.23051927 5.09436537 -32.76179504 5.09336853 C-36.75491035 5.08958518 -40.74798818 5.07979158 -44.74108887 5.06866455 C-48.83064263 5.05835955 -52.92020257 5.05385161 -57.00976562 5.04882812 C-65.00652745 5.03816475 -73.00325904 5.0211398 -81 5 C-81 4.67 -81 4.34 -81 4 C-80.39596848 3.99191315 -79.79193695 3.98382629 -79.16960144 3.97549438 C-37.62672613 7.35541281 -37.62672613 7.35541281 0 0 Z " fill="#C3CBC1" transform="translate(241,310)"/>
<path d="M0 0 C4.29 0 8.58 0 13 0 C13 0.66 13 1.32 13 2 C14.12921875 1.95456055 14.12921875 1.95456055 15.28125 1.90820312 C29.69346291 1.33976026 44.07007613 0.85842989 58.49609375 1.03710938 C59.87474609 1.04967773 59.87474609 1.04967773 61.28125 1.0625 C62.07595703 1.07410156 62.87066406 1.08570313 63.68945312 1.09765625 C66.21227223 0.99102822 68.53162281 0.51657868 71 0 C73.10323534 -0.0659735 75.20835724 -0.08562245 77.3125 -0.0625 C78.91544922 -0.04896484 78.91544922 -0.04896484 80.55078125 -0.03515625 C81.35902344 -0.02355469 82.16726562 -0.01195312 83 0 C83 0.33 83 0.66 83 1 C74.08536682 2.61658617 65.516443 3.28634838 56.46484375 3.23046875 C54.60406944 3.22978142 54.60406944 3.22978142 52.70570374 3.2290802 C50.10319045 3.22608103 47.50067857 3.21826573 44.89819336 3.20581055 C40.94443302 3.18753205 36.99090764 3.18530153 33.03710938 3.18554688 C30.4921855 3.1806309 27.9472632 3.17480223 25.40234375 3.16796875 C23.65340065 3.16629951 23.65340065 3.16629951 21.86912537 3.16459656 C14.53465051 3.12275509 7.29903755 2.72130436 0 2 C0 1.34 0 0.68 0 0 Z " fill="#ACB8AA" transform="translate(142,310)"/>
<path d="M0 0 C-0.99 1.485 -0.99 1.485 -2 3 C-2.99 3 -3.98 3 -5 3 C-6.33981486 3.3062434 -7.67511887 3.63451555 -9 4 C-9 6.64 -9 9.28 -9 12 C-6.36 12.33 -3.72 12.66 -1 13 C-3.6855594 15.6855594 -6.37621328 16.06049974 -10 17 C-10 16.34 -10 15.68 -10 15 C-10.66 15 -11.32 15 -12 15 C-12 14.01 -12 13.02 -12 12 C-17.94 12 -23.88 12 -30 12 C-30 10.02 -30 8.04 -30 6 C-29.67 6 -29.34 6 -29 6 C-29 7.65 -29 9.3 -29 11 C-23.72 11 -18.44 11 -13 11 C-13 8.69 -13 6.38 -13 4 C-9.61875313 0.1069515 -4.95295074 -2.01213624 0 0 Z " fill="#4B9FF8" transform="translate(201,208)"/>
<path d="M0 0 C1.16781006 0.00523682 2.33562012 0.01047363 3.53881836 0.01586914 C4.79887695 0.0190918 6.05893555 0.02231445 7.35717773 0.02563477 C8.6976732 0.03399136 10.03816799 0.04245632 11.37866211 0.05102539 C12.72306153 0.05603879 14.06746271 0.06060197 15.41186523 0.06469727 C18.71334151 0.07653051 22.01473014 0.09301568 25.31616211 0.11352539 C25.31616211 0.44352539 25.31616211 0.77352539 25.31616211 1.11352539 C13.01777484 3.31753745 0.75496616 4.94135428 -11.68383789 6.11352539 C-11.68383789 3.11352539 -11.68383789 3.11352539 -10.68383789 2.11352539 C-8.35050456 1.78019206 -6.01717122 1.44685872 -3.68383789 1.11352539 C-2.68383789 0.11352539 -2.68383789 0.11352539 0 0 Z " fill="#E5E8E4" transform="translate(99.683837890625,293.886474609375)"/>
<path d="M0 0 C11.08121979 -0.22046085 21.91337662 0.44446114 32.9375 1.5 C34.50710378 1.64515628 36.07676521 1.78969059 37.64648438 1.93359375 C41.43168932 2.28193066 45.21602534 2.63855336 49 3 C49 3.33 49 3.66 49 4 C14.30433296 4.61916858 14.30433296 4.61916858 0 1 C0 0.67 0 0.34 0 0 Z " fill="#EDEFEC" transform="translate(89,314)"/>
<path d="M0 0 C29.40727903 -0.48588539 29.40727903 -0.48588539 40 4 C40 4.33 40 4.66 40 5 C29.48998604 5.51782916 19.58163814 4.07400572 9.24316406 2.36376953 C6.16773953 1.86503395 3.08594405 1.42837229 0 1 C0 0.67 0 0.34 0 0 Z " fill="#ECEDEA" transform="translate(238,294)"/>
<path d="M0 0 C0.56847656 0.27714844 1.13695312 0.55429688 1.72265625 0.83984375 C1.06265625 2.48984375 0.40265625 4.13984375 -0.27734375 5.83984375 C0.38265625 6.16984375 1.04265625 6.49984375 1.72265625 6.83984375 C0.07265625 6.83984375 -1.57734375 6.83984375 -3.27734375 6.83984375 C-3.60734375 6.17984375 -3.93734375 5.51984375 -4.27734375 4.83984375 C-3.61734375 4.17984375 -2.95734375 3.51984375 -2.27734375 2.83984375 C-5.64762899 0.53482578 -8.56029375 -1.39145459 -12.7421875 -0.828125 C-16.20667657 0.31173121 -18.67550861 1.23800861 -21.27734375 3.83984375 C-21.93734375 4.49984375 -22.59734375 5.15984375 -23.27734375 5.83984375 C-23.60734375 5.17984375 -23.93734375 4.51984375 -24.27734375 3.83984375 C-25.26734375 3.50984375 -26.25734375 3.17984375 -27.27734375 2.83984375 C-18.86848387 -5.56901613 -9.90331892 -4.64579736 0 0 Z " fill="#4A9EFA" transform="translate(246.27734375,127.16015625)"/>
<path d="M0 0 C2.21692446 0.95997663 4.39905132 1.96488613 6.5703125 3.0234375 C6.5703125 3.6834375 6.5703125 4.3434375 6.5703125 5.0234375 C3.5703125 6.0234375 3.5703125 6.0234375 1.625 5.140625 C0.90570313 4.73070313 0.18640625 4.32078125 -0.5546875 3.8984375 C-4.34631055 2.08316699 -6.31732184 1.83620849 -10.3046875 3.2109375 C-11.68882618 3.79386329 -13.065161 4.39597451 -14.4296875 5.0234375 C-15.4196875 5.3534375 -16.4096875 5.6834375 -17.4296875 6.0234375 C-18.0896875 5.0334375 -18.7496875 4.0434375 -19.4296875 3.0234375 C-12.34909433 -1.09384907 -7.98432525 -3.20913394 0 0 Z " fill="#7F908F" transform="translate(186.4296875,93.9765625)"/>
<path d="M0 0 C2.72951713 -0.15597241 4.65266991 -0.14885575 7.1875 0.9375 C10.65471605 2.24733718 13.8764664 2.41277003 17.55078125 2.71484375 C20.54367858 3.0632991 23.20297315 3.89591046 26 5 C26 5.33 26 5.66 26 6 C18.4024052 6.15318589 10.93955113 5.6801662 3.375 5 C1.72564453 4.85691406 1.72564453 4.85691406 0.04296875 4.7109375 C-2.63837982 4.47777676 -5.31932221 4.2407296 -8 4 C-8 3.34 -8 2.68 -8 2 C-5.69 2 -3.38 2 -1 2 C-0.67 1.34 -0.34 0.68 0 0 Z " fill="#DFE3DE" transform="translate(100,310)"/>
<path d="M0 0 C1.69169626 0.80372649 3.38067609 1.61331505 5.0625 2.4375 C4.0625 4.4375 4.0625 4.4375 1.6875 5.25 C0.388125 5.3428125 0.388125 5.3428125 -0.9375 5.4375 C-2.375 4.1875 -2.375 4.1875 -3.9375 2.4375 C-7.38863069 0.213438 -8.97476431 -0.75504714 -13.0625 0.0625 C-15.67128906 1.31018173 -17.71304531 2.61026936 -19.9375 4.4375 C-20.9275 4.9325 -20.9275 4.9325 -21.9375 5.4375 C-21.9375 4.4475 -21.9375 3.4575 -21.9375 2.4375 C-22.5975 2.1075 -23.2575 1.7775 -23.9375 1.4375 C-14.53616722 -3.47567391 -9.83274433 -4.37150034 0 0 Z " fill="#50A0FA" transform="translate(135.9375,126.5625)"/>
<path d="M0 0 C-1.75 3.875 -1.75 3.875 -4 5 C-11.85213837 6.18071061 -19.6357371 6.11520993 -27.5625 6.0625 C-29.50479492 6.05573242 -29.50479492 6.05573242 -31.48632812 6.04882812 C-34.657601 6.03712601 -37.82877546 6.02073113 -41 6 C-41 5.67 -41 5.34 -41 5 C-40.11739502 4.95512451 -39.23479004 4.91024902 -38.32543945 4.86401367 C-35.03528311 4.69025533 -31.74627338 4.50435172 -28.45727539 4.31030273 C-27.03664597 4.2289622 -25.61573421 4.15240067 -24.19458008 4.08081055 C-22.1457077 3.97675223 -20.09848325 3.85525438 -18.05078125 3.73046875 C-16.82012939 3.66239014 -15.58947754 3.59431152 -14.3215332 3.52416992 C-8.74975349 2.64488943 -5.93307492 -0.41393546 0 0 Z " fill="#D2D8D1" transform="translate(251,310)"/>
<path d="M0 0 C2.08218362 -0.10832169 4.16599129 -0.18573541 6.25 -0.25 C7.99023438 -0.31960937 7.99023438 -0.31960937 9.765625 -0.390625 C13 0 13 0 15.40625 1.71875 C17.24882292 4.35615829 17.43651561 5.57923471 17.25 8.75 C17.21390625 9.54921875 17.1778125 10.3484375 17.140625 11.171875 C17.07101563 12.07679688 17.07101563 12.07679688 17 13 C16.01 13.33 15.02 13.66 14 14 C13.67 10.7 13.34 7.4 13 4 C8.71 4 4.42 4 0 4 C0 3.67 0 3.34 0 3 C3.96 3 7.92 3 12 3 C12 2.34 12 1.68 12 1 C8.04 1 4.08 1 0 1 C0 0.67 0 0.34 0 0 Z " fill="#61ABF7" transform="translate(141,137)"/>
<path d="M0 0 C2.20773438 0.96891164 4.38769485 1.97477966 6.5546875 3.03125 C5.8946875 4.35125 5.2346875 5.67125 4.5546875 7.03125 C2.5546875 6.03125 2.5546875 6.03125 -0.5078125 3.90625 C-4.3871549 1.62428388 -7.21955954 1.99228468 -11.52734375 2.8671875 C-12.16027344 2.92132813 -12.79320312 2.97546875 -13.4453125 3.03125 C-14.1053125 2.37125 -14.7653125 1.71125 -15.4453125 1.03125 C-9.79734309 -2.41263379 -6.12637596 -2.42706268 0 0 Z " fill="#50A0F9" transform="translate(241.4453125,220.96875)"/>
<path d="M0 0 C9.81996112 -0.34057669 19.29046527 0.71153094 29 2 C29.33 2.99 29.66 3.98 30 5 C23.28801953 4.2909395 16.61619997 3.40886277 9.9375 2.4375 C8.49600586 2.22963867 8.49600586 2.22963867 7.02539062 2.01757812 C4.68340345 1.67967948 2.34161527 1.34046465 0 1 C0 0.67 0 0.34 0 0 Z " fill="#C7CEC5" transform="translate(216,296)"/>
<path d="M0 0 C6.64267465 0.1413335 12.12129366 3.11911498 18 6 C17.67 6.66 17.34 7.32 17 8 C16.01 7.67 15.02 7.34 14 7 C14.33 7.99 14.66 8.98 15 10 C14.01 10.33 13.02 10.66 12 11 C11.34 10.34 10.68 9.68 10 9 C10.66 8.67 11.32 8.34 12 8 C7.34525646 5.15015702 3.29860806 3.2976183 -2 2 C-1.34 1.34 -0.68 0.68 0 0 Z " fill="#50A1FA" transform="translate(123,219)"/>
<path d="M0 0 C0.66 0 1.32 0 2 0 C4.59381229 3.89071844 4.63187808 6.36166385 5 11 C4.67 11.66 4.34 12.32 4 13 C2.68 12.67 1.36 12.34 0 12 C0 9.36 0 6.72 0 4 C-4.29 4 -8.58 4 -13 4 C-13 3.67 -13 3.34 -13 3 C-9.04 3 -5.08 3 -1 3 C-0.67 2.01 -0.34 1.02 0 0 Z " fill="#4D9EF9" transform="translate(219,233)"/>
<path d="M0 0 C0 0.33 0 0.66 0 1 C-7.5 2.5 -7.5 2.5 -15 4 C-15.90363281 4.19722656 -16.80726562 4.39445312 -17.73828125 4.59765625 C-20 5 -20 5 -24 5 C-24 4.34 -24 3.68 -24 3 C-24.99 3.33 -25.98 3.66 -27 4 C-27 3.34 -27 2.68 -27 2 C-17.95960217 0.72958023 -9.15564771 -0.34915606 0 0 Z " fill="#D4DBD4" transform="translate(125,296)"/>
<path d="M0 0 C0.33 0.99 0.66 1.98 1 3 C1.61488281 3.04898438 2.22976562 3.09796875 2.86328125 3.1484375 C3.67152344 3.22320312 4.47976562 3.29796875 5.3125 3.375 C6.51326172 3.47941406 6.51326172 3.47941406 7.73828125 3.5859375 C10.94454037 4.17292103 12.73174985 5.73174985 15 8 C14.01 8.33 13.02 8.66 12 9 C11.05125 8.34 10.1025 7.68 9.125 7 C6.24542099 4.70447 6.24542099 4.70447 3.375 5.25 C2.59125 5.4975 1.8075 5.745 1 6 C-0.32 6 -1.64 6 -3 6 C-3.33 4.68 -3.66 3.36 -4 2 C-2.68 1.34 -1.36 0.68 0 0 Z " fill="#F0F8FC" transform="translate(158,203)"/>
<path d="M0 0 C0.66 0.33 1.32 0.66 2 1 C4.0374763 1.22858114 6.08040303 1.41024278 8.125 1.5625 C9.76855469 1.68818359 9.76855469 1.68818359 11.4453125 1.81640625 C12.28835937 1.87699219 13.13140625 1.93757812 14 2 C14 2.33 14 2.66 14 3 C9.71 3 5.42 3 1 3 C0.67 5.97 0.34 8.94 0 12 C-0.99 12 -1.98 12 -3 12 C-3.08131463 10.56344146 -3.13933559 9.1255517 -3.1875 7.6875 C-3.22230469 6.88699219 -3.25710937 6.08648437 -3.29296875 5.26171875 C-2.93801608 2.52148416 -2.10633718 1.70828921 0 0 Z " fill="#50A1F6" transform="translate(205,138)"/>
<path d="M0 0 C1.39456452 0.00667256 2.78911118 0.01863093 4.18359375 0.03515625 C4.89451172 0.03966797 5.60542969 0.04417969 6.33789062 0.04882812 C8.09899388 0.06064761 9.86005411 0.07858362 11.62109375 0.09765625 C11.62109375 0.42765625 11.62109375 0.75765625 11.62109375 1.09765625 C8.93483921 1.6052949 6.24740992 2.10392822 3.55859375 2.59765625 C2.80642578 2.74074219 2.05425781 2.88382812 1.27929688 3.03125 C-3.356308 3.87408725 -7.66786775 4.24780887 -12.37890625 4.09765625 C-12.04890625 3.43765625 -11.71890625 2.77765625 -11.37890625 2.09765625 C-9.05174625 1.72364839 -6.71772763 1.39000892 -4.37890625 1.09765625 C-3.37890625 0.09765625 -3.37890625 0.09765625 0 0 Z " fill="#EFF1EE" transform="translate(100.37890625,293.90234375)"/>
<path d="M0 0 C-1.11328125 1.48828125 -1.11328125 1.48828125 -3 3 C-5.91796875 3.29296875 -5.91796875 3.29296875 -9.1875 3.1875 C-10.27417969 3.16042969 -11.36085937 3.13335937 -12.48046875 3.10546875 C-13.31191406 3.07066406 -14.14335937 3.03585937 -15 3 C-15 2.34 -15 1.68 -15 1 C-12.02148438 0.65820312 -12.02148438 0.65820312 -9.04296875 0.31640625 C-2.33035714 -0.72321429 -2.33035714 -0.72321429 0 0 Z " fill="#DBDFD9" transform="translate(266,311)"/>
<path d="M0 0 C2 3 2 3 1.625 5.1875 C1.41875 5.785625 1.2125 6.38375 1 7 C-2.465 5.02 -2.465 5.02 -6 3 C-3.375 0 -3.375 0 0 0 Z " fill="#E9F3FA" transform="translate(230,224)"/>
<path d="M0 0 C0.66 0 1.32 0 2 0 C3.125 2.3125 3.125 2.3125 4 5 C3.01 6.485 3.01 6.485 2 8 C-0.91517292 6.92598892 -2.77810176 6.22189824 -5 4 C-3.35 3.67 -1.7 3.34 0 3 C0 2.01 0 1.02 0 0 Z " fill="#E8F6FB" transform="translate(202,202)"/>
<path d="M0 0 C2.72951713 -0.15597241 4.65266991 -0.14885575 7.1875 0.9375 C11.34896062 2.50960735 15.58740555 2.67441051 20 3 C20 3.33 20 3.66 20 4 C17.60385874 4.05425226 15.20896147 4.09379027 12.8125 4.125 C11.80219727 4.15013672 11.80219727 4.15013672 10.77148438 4.17578125 C6.71192193 4.21538674 3.65001185 3.80020002 0 2 C0 1.34 0 0.68 0 0 Z " fill="#D4DAD3" transform="translate(100,310)"/>
<path d="M0 0 C0.66 0.33 1.32 0.66 2 1 C-0.90673575 5.31606218 -0.90673575 5.31606218 -3 7 C-6.8125 6.875 -6.8125 6.875 -10 6 C-6.87511433 3.47605388 -3.68685613 1.60298093 0 0 Z " fill="#E9F4FB" transform="translate(195,223)"/>
<path d="M0 0 C0.969375 0.515625 1.93875 1.03125 2.9375 1.5625 C7.41525272 3.52610468 11.30555147 2.88353567 16 2 C12.19960369 4.53359754 8.57877013 5.75205216 4 6 C1.4375 4.25 1.4375 4.25 0 2 C0 1.34 0 0.68 0 0 Z " fill="#EEF7F8" transform="translate(117,152)"/>
<path d="M0 0 C0 0.66 0 1.32 0 2 C0.66 2.33 1.32 2.66 2 3 C-2.455 4.485 -2.455 4.485 -7 6 C-7 4.68 -7 3.36 -7 2 C-4.35261084 0.5393715 -3.10551666 0 0 0 Z " fill="#F1F9F9" transform="translate(121,121)"/>
<path d="M0 0 C0.66 0.66 1.32 1.32 2 2 C2.99 1.67 3.98 1.34 5 1 C5.66 1.66 6.32 2.32 7 3 C6.67 3.66 6.34 4.32 6 5 C6.66 5 7.32 5 8 5 C8 5.66 8 6.32 8 7 C2.25 5.125 2.25 5.125 0 4 C0 2.68 0 1.36 0 0 Z " fill="#ECF6F9" transform="translate(239,217)"/>
<path d="M0 0 C1.98 0 3.96 0 6 0 C5.01 0.66 4.02 1.32 3 2 C2.26393501 5.56769552 2.26393501 5.56769552 2 9 C1.01 8.67 0.02 8.34 -1 8 C-0.34 8 0.32 8 1 8 C0.2575 7.319375 0.2575 7.319375 -0.5 6.625 C-2 5 -2 5 -2 3 C-1.34 3 -0.68 3 0 3 C0 2.01 0 1.02 0 0 Z " fill="#EAF6F9" transform="translate(186,210)"/>
<path d="M0 0 C2.125 0.375 2.125 0.375 4 1 C4 1.66 4 2.32 4 3 C2.35 3.33 0.7 3.66 -1 4 C-1 6.64 -1 9.28 -1 12 C-1.33 12 -1.66 12 -2 12 C-2.05395478 10.37536158 -2.09277195 8.75021459 -2.125 7.125 C-2.14820313 6.22007812 -2.17140625 5.31515625 -2.1953125 4.3828125 C-2 2 -2 2 0 0 Z " fill="#E5F0F8" transform="translate(156,220)"/>
<path d="M0 0 C-0.67170806 3.8063457 -1.72746564 7.35206816 -3 11 C-3.33 11 -3.66 11 -4 11 C-4 7.7 -4 4.4 -4 1 C-2 0 -2 0 0 0 Z " fill="#7D8D8B" transform="translate(245,174)"/>
<path d="M0 0 C2.625 0.9375 2.625 0.9375 5 2 C2.37801226 4.15377564 0.35595828 5.40072174 -3 6 C-3 5.34 -3 4.68 -3 4 C-2.34 4 -1.68 4 -1 4 C-1.33 3.01 -1.66 2.02 -2 1 C-1.34 0.67 -0.68 0.34 0 0 Z " fill="#ECF5F9" transform="translate(116,218)"/>
<path d="M0 0 C0.33 0.99 0.66 1.98 1 3 C-1.475 4.485 -1.475 4.485 -4 6 C-4 5.34 -4 4.68 -4 4 C-5.32 3.67 -6.64 3.34 -8 3 C-2.25 0 -2.25 0 0 0 Z " fill="#879696" transform="translate(170,247)"/>
<path d="M0 0 C5.23402501 0.59253113 8.19536193 1.19536193 12 5 C9 6 9 6 6.73828125 5.00390625 C5.93777344 4.52824219 5.13726562 4.05257812 4.3125 3.5625 C3.50425781 3.08941406 2.69601563 2.61632812 1.86328125 2.12890625 C1.24839844 1.75636719 0.63351563 1.38382813 0 1 C0 0.67 0 0.34 0 0 Z " fill="#DDEFF9" transform="translate(161,206)"/>
<path d="M0 0 C0.53625 0.391875 1.0725 0.78375 1.625 1.1875 C-0.99173759 2.58932371 -3.4121669 3.79245559 -6.375 4.1875 C-7.035 3.5275 -7.695 2.8675 -8.375 2.1875 C-2.95961538 -1.0125 -2.95961538 -1.0125 0 0 Z " fill="#5AA5FC" transform="translate(234.375,219.8125)"/>
<path d="M0 0 C-0.3125 1.875 -0.3125 1.875 -1 4 C-1.99 4.66 -2.98 5.32 -4 6 C-4.99 5.01 -5.98 4.02 -7 3 C-2.25 0 -2.25 0 0 0 Z " fill="#829292" transform="translate(115,176)"/>
<path d="M0 0 C0 1.32 0 2.64 0 4 C-1.65 4.33 -3.3 4.66 -5 5 C-5 4.34 -5 3.68 -5 3 C-5.66 2.67 -6.32 2.34 -7 2 C-4.35261084 0.5393715 -3.10551666 0 0 0 Z " fill="#879595" transform="translate(101,167)"/>
<path d="M0 0 C2.475 0.99 2.475 0.99 5 2 C2.61426621 3.89213369 0.92824652 5.02391783 -2 6 C-1.34 4.02 -0.68 2.04 0 0 Z " fill="#EAF3F6" transform="translate(225,122)"/>
<path d="M0 0 C4.455 0.99 4.455 0.99 9 2 C8.34 2.66 7.68 3.32 7 4 C4.38419521 3.6730244 2.35921863 3.17960932 0 2 C0 1.34 0 0.68 0 0 Z " fill="#4FA2F9" transform="translate(229,248)"/>
<path d="M0 0 C1.98 0.495 1.98 0.495 4 1 C3.34 2.65 2.68 4.3 2 6 C1.01 5.01 0.02 4.02 -1 3 C-0.67 2.01 -0.34 1.02 0 0 Z " fill="#DCEEFA" transform="translate(208,194)"/>
<path d="M0 0 C0.66 0.33 1.32 0.66 2 1 C1.1875 2.9375 1.1875 2.9375 0 5 C-0.99 5.33 -1.98 5.66 -3 6 C-2.42655063 3.13275314 -2.1385485 2.1385485 0 0 Z " fill="#EAF3F6" transform="translate(157,233)"/>
<path d="M0 0 C3.465 1.485 3.465 1.485 7 3 C6.01 3.99 5.02 4.98 4 6 C2.62437146 4.71034824 1.29233607 3.37310707 0 2 C0 1.34 0 0.68 0 0 Z " fill="#809291" transform="translate(107,170)"/>
<path d="M0 0 C0.66 0.33 1.32 0.66 2 1 C1.34 2.32 0.68 3.64 0 5 C0.66 5.33 1.32 5.66 2 6 C0.35 6 -1.3 6 -3 6 C-3.33 5.34 -3.66 4.68 -4 4 C-2.66666667 2.66666667 -1.33333333 1.33333333 0 0 Z " fill="#54A2F8" transform="translate(246,128)"/>
<path d="M0 0 C0.99 0.33 1.98 0.66 3 1 C3 1.66 3 2.32 3 3 C1.02 3.66 -0.96 4.32 -3 5 C-3 4.01 -3 3.02 -3 2 C-2.01 1.34 -1.02 0.68 0 0 Z " fill="#F6FBF6" transform="translate(131,128)"/>
<path d="M0 0 C2.475 0.495 2.475 0.495 5 1 C5 1.99 5 2.98 5 4 C3.35 3.67 1.7 3.34 0 3 C0 2.01 0 1.02 0 0 Z " fill="#778888" transform="translate(179,92)"/>
</svg>
